<svg width="25" height="25" viewBox="0 0 25 25" fill="none" xmlns="http://www.w3.org/2000/svg">
    <path d="M19.327 19.1406H18.8477C18.3841 19.1406 17.9837 18.8141 17.8911 18.3625L17.1312 13.6834C17.0447 13.1511 16.5432 12.7897 16.0107 12.8761C15.4784 12.9625 15.1169 13.4642 15.2034 13.9965L15.9659 18.6921C15.9674 18.7015 15.969 18.7109 15.9709 18.7203C15.9987 18.8648 16.037 19.0051 16.0848 19.1406H4.03237C4.08018 19.0051 4.11851 18.8648 4.14629 18.7203C4.1479 18.712 4.14937 18.7037 4.15078 18.6953L5.68735 9.42852C6.04155 7.24727 7.90264 5.66406 10.1125 5.66406C10.6519 5.66406 11.0891 5.22686 11.0891 4.6875L11.0352 0.976562C11.0352 0.437207 10.5979 0 10.0586 0C9.51924 0 9.08203 0.437207 9.08203 0.976562C9.08203 0.985889 9.08213 1.91851 9.08882 2.83911C9.0915 3.20835 9.09487 3.527 9.09888 3.79141C6.32466 4.23462 4.19912 6.40835 3.76001 9.11226L2.22642 18.3612C2.13423 18.8135 1.7335 19.1406 1.26953 19.1406C0.730176 19.1406 0.292969 19.5778 0.292969 20.1172C0.292969 20.6565 0.730176 21.0938 1.26953 21.0938H7.29687C7.18848 21.3994 7.12891 21.728 7.12891 22.0703C7.12891 23.6857 8.44316 25 10.0586 25C11.674 25 12.9883 23.6857 12.9883 22.0703C12.9883 21.728 12.9287 21.3994 12.8203 21.0938H19.3271C19.8665 21.0938 20.3037 20.6565 20.3037 20.1172C20.3037 19.5778 19.8664 19.1406 19.327 19.1406ZM11.0352 22.0703C11.0352 22.6088 10.5971 23.0469 10.0586 23.0469C9.52012 23.0469 9.08203 22.6088 9.08203 22.0703C9.08203 21.5318 9.52012 21.0938 10.0586 21.0938C10.5971 21.0938 11.0352 21.5318 11.0352 22.0703Z" fill="#222222"/>
    <path d="M18.8477 3.90625C18.3083 3.90625 17.8711 4.34346 17.8711 4.88281V6.83594C17.8711 7.37529 18.3083 7.8125 18.8477 7.8125C19.387 7.8125 19.8242 7.37529 19.8242 6.83594V4.88281C19.8242 4.34346 19.387 3.90625 18.8477 3.90625Z" fill="#222222"/>
    <path d="M18.8477 0C15.6168 0 12.9883 2.62852 12.9883 5.85938C12.9883 9.09023 15.6168 11.7188 18.8477 11.7188C22.0785 11.7188 24.707 9.09023 24.707 5.85938C24.707 2.62852 22.0785 0 18.8477 0ZM18.8477 9.76562C16.6937 9.76562 14.9414 8.01328 14.9414 5.85938C14.9414 3.70547 16.6937 1.95312 18.8477 1.95312C21.0016 1.95312 22.7539 3.70547 22.7539 5.85938C22.7539 8.01328 21.0016 9.76562 18.8477 9.76562Z" fill="#222222"/>
</svg>
