<svg width="16" height="15" viewBox="0 0 16 15" fill="none" xmlns="http://www.w3.org/2000/svg">
    <path fill-rule="evenodd" clip-rule="evenodd" d="M11.4172 0.546872C10.6981 -0.19554 9.52749 -0.180054 8.82697 0.581146L1.04738 9.03468C0.821314 9.28033 0.664261 9.58486 0.593058 9.91562L0.0442774 12.4649C-0.239296 13.7822 0.88282 14.9655 2.16464 14.7008L5.05658 14.1037C5.40673 14.0314 5.72831 13.8538 5.98081 13.5931L13.7391 5.58425C14.4455 4.85509 14.4455 3.67289 13.7391 2.94373L11.4172 0.546872ZM10.1383 1.86713L12.4602 4.26399L4.70186 12.2729L1.80992 12.8699L2.3587 10.3207L10.1383 1.86713ZM9.6695 13.1329C9.17004 13.1329 8.76514 13.5508 8.76514 14.0664C8.76514 14.582 9.17004 15 9.6695 15H15.0956C15.5951 15 16 14.582 16 14.0664C16 13.5508 15.5951 13.1329 15.0956 13.1329H9.6695Z" fill="#B7B9B9"/>
</svg>
