<svg width="23" height="25" viewBox="0 0 23 25" fill="none" xmlns="http://www.w3.org/2000/svg">
    <path d="M20.3623 16.0821V14.7949C20.3623 13.1795 19.048 11.8652 17.4326 11.8652C15.8172 11.8652 14.5029 13.1795 14.5029 14.7949V16.0655C12.9452 16.5794 11.8174 18.0478 11.8174 19.7754V21.0938C11.8174 23.2477 13.5697 25 15.7236 25H19.0928C21.2467 25 22.999 23.2477 22.999 21.0938V19.7754C22.999 18.0659 21.8947 16.6104 20.3623 16.0821ZM17.4326 13.8184C17.9711 13.8184 18.4092 14.2564 18.4092 14.7949V15.8691H16.4561V14.7949C16.4561 14.2564 16.8941 13.8184 17.4326 13.8184ZM21.0459 21.0938C21.0459 22.1707 20.1697 23.0469 19.0928 23.0469H15.7236C14.6467 23.0469 13.7705 22.1707 13.7705 21.0938V19.7754C13.7705 18.6984 14.6467 17.8223 15.7236 17.8223H19.0928C20.1697 17.8223 21.0459 18.6984 21.0459 19.7754V21.0938ZM9.52246 13.1836C13.1572 13.1836 16.1143 10.2265 16.1143 6.5918C16.1143 2.95708 13.1572 0 9.52246 0C5.88774 0 2.93066 2.95708 2.93066 6.5918C2.93066 10.2265 5.88774 13.1836 9.52246 13.1836ZM9.52246 1.95312C12.0802 1.95312 14.1611 4.03403 14.1611 6.5918C14.1611 9.14956 12.0802 11.2305 9.52246 11.2305C6.9647 11.2305 4.88379 9.14956 4.88379 6.5918C4.88379 4.03403 6.9647 1.95312 9.52246 1.95312ZM18.6859 20.4102C18.6859 21.0843 18.1394 21.6309 17.4652 21.6309C16.791 21.6309 16.2445 21.0843 16.2445 20.4102C16.2445 19.736 16.791 19.1895 17.4652 19.1895C18.1394 19.1895 18.6859 19.736 18.6859 20.4102ZM10.8408 16.1133C10.8408 16.6526 10.4036 17.0898 9.86426 17.0898H8.8877C5.0645 17.0898 1.9541 20.2002 1.9541 24.0234C1.9541 24.5628 1.51689 25 0.977539 25C0.438184 25 0.000976562 24.5628 0.000976562 24.0234C0.000976562 19.1233 3.98755 15.1367 8.8877 15.1367H9.86426C10.4036 15.1367 10.8408 15.5739 10.8408 16.1133Z" fill="black"/>
</svg>
